<!--?xml version="1.0" standalone="no"?-->
              <svg id="sw-js-blob-svg" viewBox="0 0 100 100" xmlns="http://www.w3.org/2000/svg" version="1.1">
                    <defs> 
                        <linearGradient id="sw-gradient" x1="0" x2="1" y1="1" y2="0">
                            <stop id="stop1" stop-color="rgba(100.133, 197.474, 235.766, 1)" offset="0%"></stop>
                            <stop id="stop2" stop-color="rgba(1.622, 98.271, 235.766, 1)" offset="100%"></stop>
                        </linearGradient>
                    </defs>
                <path fill="url(#sw-gradient)" d="M12.7,-20.2C16.9,-14.4,21.1,-11.3,25.1,-6.4C29.1,-1.5,32.9,5.2,31.5,10.5C30.2,15.8,23.7,19.8,17.6,21.7C11.5,23.7,5.7,23.7,0.2,23.5C-5.4,23.3,-10.9,22.9,-17,20.9C-23.1,18.9,-29.9,15.4,-30.5,10.6C-31.2,5.7,-25.7,-0.4,-23.4,-7.6C-21,-14.8,-21.8,-22.9,-18.4,-29C-15.1,-35.1,-7.5,-39.1,-1.6,-36.8C4.2,-34.6,8.5,-26,12.7,-20.2Z" width="100%" height="100%" transform="translate(50 50)" stroke-width="0" style="transition: all 0.3s ease 0s;"></path>
              </svg>